<?xml version="1.0" encoding="UTF-8"?>
<svg width="17px" height="18px" viewBox="0 0 17 18" version="1.1" xmlns="http://www.w3.org/2000/svg" xmlns:xlink="http://www.w3.org/1999/xlink">
    <!-- Generator: Sketch 46.2 (44496) - http://www.bohemiancoding.com/sketch -->
    <title></title>
    <desc>Created with Sketch.</desc>
    <defs></defs>
    <g id="Content" stroke="none" stroke-width="1" fill="none" fill-rule="evenodd">
        <g id="Content---Editor-Details---Comment-mechanism" transform="translate(-593.000000, -284.000000)" fill="#548ACF">
            <path d="M595.671875,299.3125 C594.921871,299.3125 594.289065,299.072268 593.773438,298.591797 C593.25781,298.111326 593,297.519535 593,296.816406 L593,287.46875 C593,286.765621 593.25781,286.167971 593.773438,285.675781 C594.289065,285.183591 594.921871,284.9375 595.671875,284.9375 L606.953125,284.9375 C607.703129,284.9375 608.335935,285.183591 608.851562,285.675781 C609.36719,286.167971 609.625,286.765621 609.625,287.46875 L609.625,296.816406 C609.625,297.519535 609.36719,298.111326 608.851562,298.591797 C608.335935,299.072268 607.703129,299.3125 606.953125,299.3125 L606.8125,299.3125 L606.8125,301.5625 C604.960928,300.296869 603.953126,299.605469 603.789062,299.488281 C603.624999,299.371093 603.378908,299.3125 603.050781,299.3125 L595.671875,299.3125 Z" id=""></path>
        </g>
    </g>
</svg>