<?xml version="1.0" encoding="UTF-8"?>
<svg width="16px" height="12px" viewBox="0 0 16 12" version="1.1" xmlns="http://www.w3.org/2000/svg" xmlns:xlink="http://www.w3.org/1999/xlink">
    <!-- Generator: Sketch 46.2 (44496) - http://www.bohemiancoding.com/sketch -->
    <title>US Flag</title>
    <desc>Created with Sketch.</desc>
    <defs>
        <rect id="path-1" x="0" y="0" width="16" height="11.4285714"></rect>
        <linearGradient x1="50%" y1="0%" x2="50%" y2="100%" id="linearGradient-3">
            <stop stop-color="#FFFFFF" offset="0%"></stop>
            <stop stop-color="#F0F0F0" offset="100%"></stop>
        </linearGradient>
        <path d="M1.14285714,1.52380952 C0.932462952,1.52380952 0.761904762,1.35325133 0.761904762,1.14285714 C0.761904762,0.932462952 0.932462952,0.761904762 1.14285714,0.761904762 C1.35325133,0.761904762 1.52380952,0.932462952 1.52380952,1.14285714 C1.52380952,1.35325133 1.35325133,1.52380952 1.14285714,1.52380952 Z M2.66666667,1.52380952 C2.45627248,1.52380952 2.28571429,1.35325133 2.28571429,1.14285714 C2.28571429,0.932462952 2.45627248,0.761904762 2.66666667,0.761904762 C2.87706086,0.761904762 3.04761905,0.932462952 3.04761905,1.14285714 C3.04761905,1.35325133 2.87706086,1.52380952 2.66666667,1.52380952 Z M4.19047619,1.52380952 C3.980082,1.52380952 3.80952381,1.35325133 3.80952381,1.14285714 C3.80952381,0.932462952 3.980082,0.761904762 4.19047619,0.761904762 C4.40087038,0.761904762 4.57142857,0.932462952 4.57142857,1.14285714 C4.57142857,1.35325133 4.40087038,1.52380952 4.19047619,1.52380952 Z M5.71428571,1.52380952 C5.50389152,1.52380952 5.33333333,1.35325133 5.33333333,1.14285714 C5.33333333,0.932462952 5.50389152,0.761904762 5.71428571,0.761904762 C5.9246799,0.761904762 6.0952381,0.932462952 6.0952381,1.14285714 C6.0952381,1.35325133 5.9246799,1.52380952 5.71428571,1.52380952 Z M1.9047619,2.28571429 C1.69436771,2.28571429 1.52380952,2.1151561 1.52380952,1.9047619 C1.52380952,1.69436771 1.69436771,1.52380952 1.9047619,1.52380952 C2.1151561,1.52380952 2.28571429,1.69436771 2.28571429,1.9047619 C2.28571429,2.1151561 2.1151561,2.28571429 1.9047619,2.28571429 Z M3.42857143,2.28571429 C3.21817724,2.28571429 3.04761905,2.1151561 3.04761905,1.9047619 C3.04761905,1.69436771 3.21817724,1.52380952 3.42857143,1.52380952 C3.63896562,1.52380952 3.80952381,1.69436771 3.80952381,1.9047619 C3.80952381,2.1151561 3.63896562,2.28571429 3.42857143,2.28571429 Z M4.95238095,2.28571429 C4.74198676,2.28571429 4.57142857,2.1151561 4.57142857,1.9047619 C4.57142857,1.69436771 4.74198676,1.52380952 4.95238095,1.52380952 C5.16277514,1.52380952 5.33333333,1.69436771 5.33333333,1.9047619 C5.33333333,2.1151561 5.16277514,2.28571429 4.95238095,2.28571429 Z M5.71428571,3.04761905 C5.50389152,3.04761905 5.33333333,2.87706086 5.33333333,2.66666667 C5.33333333,2.45627248 5.50389152,2.28571429 5.71428571,2.28571429 C5.9246799,2.28571429 6.0952381,2.45627248 6.0952381,2.66666667 C6.0952381,2.87706086 5.9246799,3.04761905 5.71428571,3.04761905 Z M4.19047619,3.04761905 C3.980082,3.04761905 3.80952381,2.87706086 3.80952381,2.66666667 C3.80952381,2.45627248 3.980082,2.28571429 4.19047619,2.28571429 C4.40087038,2.28571429 4.57142857,2.45627248 4.57142857,2.66666667 C4.57142857,2.87706086 4.40087038,3.04761905 4.19047619,3.04761905 Z M2.66666667,3.04761905 C2.45627248,3.04761905 2.28571429,2.87706086 2.28571429,2.66666667 C2.28571429,2.45627248 2.45627248,2.28571429 2.66666667,2.28571429 C2.87706086,2.28571429 3.04761905,2.45627248 3.04761905,2.66666667 C3.04761905,2.87706086 2.87706086,3.04761905 2.66666667,3.04761905 Z M1.14285714,3.04761905 C0.932462952,3.04761905 0.761904762,2.87706086 0.761904762,2.66666667 C0.761904762,2.45627248 0.932462952,2.28571429 1.14285714,2.28571429 C1.35325133,2.28571429 1.52380952,2.45627248 1.52380952,2.66666667 C1.52380952,2.87706086 1.35325133,3.04761905 1.14285714,3.04761905 Z M1.9047619,3.80952381 C1.69436771,3.80952381 1.52380952,3.63896562 1.52380952,3.42857143 C1.52380952,3.21817724 1.69436771,3.04761905 1.9047619,3.04761905 C2.1151561,3.04761905 2.28571429,3.21817724 2.28571429,3.42857143 C2.28571429,3.63896562 2.1151561,3.80952381 1.9047619,3.80952381 Z M3.42857143,3.80952381 C3.21817724,3.80952381 3.04761905,3.63896562 3.04761905,3.42857143 C3.04761905,3.21817724 3.21817724,3.04761905 3.42857143,3.04761905 C3.63896562,3.04761905 3.80952381,3.21817724 3.80952381,3.42857143 C3.80952381,3.63896562 3.63896562,3.80952381 3.42857143,3.80952381 Z M4.95238095,3.80952381 C4.74198676,3.80952381 4.57142857,3.63896562 4.57142857,3.42857143 C4.57142857,3.21817724 4.74198676,3.04761905 4.95238095,3.04761905 C5.16277514,3.04761905 5.33333333,3.21817724 5.33333333,3.42857143 C5.33333333,3.63896562 5.16277514,3.80952381 4.95238095,3.80952381 Z M5.71428571,4.57142857 C5.50389152,4.57142857 5.33333333,4.40087038 5.33333333,4.19047619 C5.33333333,3.980082 5.50389152,3.80952381 5.71428571,3.80952381 C5.9246799,3.80952381 6.0952381,3.980082 6.0952381,4.19047619 C6.0952381,4.40087038 5.9246799,4.57142857 5.71428571,4.57142857 Z M4.19047619,4.57142857 C3.980082,4.57142857 3.80952381,4.40087038 3.80952381,4.19047619 C3.80952381,3.980082 3.980082,3.80952381 4.19047619,3.80952381 C4.40087038,3.80952381 4.57142857,3.980082 4.57142857,4.19047619 C4.57142857,4.40087038 4.40087038,4.57142857 4.19047619,4.57142857 Z M2.66666667,4.57142857 C2.45627248,4.57142857 2.28571429,4.40087038 2.28571429,4.19047619 C2.28571429,3.980082 2.45627248,3.80952381 2.66666667,3.80952381 C2.87706086,3.80952381 3.04761905,3.980082 3.04761905,4.19047619 C3.04761905,4.40087038 2.87706086,4.57142857 2.66666667,4.57142857 Z M1.14285714,4.57142857 C0.932462952,4.57142857 0.761904762,4.40087038 0.761904762,4.19047619 C0.761904762,3.980082 0.932462952,3.80952381 1.14285714,3.80952381 C1.35325133,3.80952381 1.52380952,3.980082 1.52380952,4.19047619 C1.52380952,4.40087038 1.35325133,4.57142857 1.14285714,4.57142857 Z" id="path-4"></path>
        <filter x="-9.4%" y="-13.1%" width="118.7%" height="152.5%" filterUnits="objectBoundingBox" id="filter-5">
            <feOffset dx="0" dy="1" in="SourceAlpha" result="shadowOffsetOuter1"></feOffset>
            <feColorMatrix values="0 0 0 0 0   0 0 0 0 0   0 0 0 0 0  0 0 0 0.06 0" type="matrix" in="shadowOffsetOuter1"></feColorMatrix>
        </filter>
    </defs>
    <g id="Content" stroke="none" stroke-width="1" fill="none" fill-rule="evenodd">
        <g id="Content---Editor" transform="translate(-966.000000, -126.000000)">
            <g id="Content" transform="translate(90.000000, 94.000000)">
                <g id="Components" transform="translate(22.000000, 29.000000)">
                    <g id="Translations" transform="translate(608.000000, 0.000000)">
                        <g id="US-Flag" transform="translate(246.000000, 3.000000)">
                            <mask id="mask-2" fill="white">
                                <use xlink:href="#path-1"></use>
                            </mask>
                            <use id="Mask" fill="#FFFFFF" xlink:href="#path-1"></use>
                            <path d="M0,0 L16,0 L16,0.761904762 L0,0.761904762 L0,0 Z M0,1.52380952 L16,1.52380952 L16,2.28571429 L0,2.28571429 L0,1.52380952 Z M0,3.04761905 L16,3.04761905 L16,3.80952381 L0,3.80952381 L0,3.04761905 Z M0,4.57142857 L16,4.57142857 L16,5.33333333 L0,5.33333333 L0,4.57142857 Z M0,6.0952381 L16,6.0952381 L16,6.85714286 L0,6.85714286 L0,6.0952381 Z M0,7.61904762 L16,7.61904762 L16,8.38095238 L0,8.38095238 L0,7.61904762 Z M0,9.14285714 L16,9.14285714 L16,9.9047619 L0,9.9047619 L0,9.14285714 Z M0,10.6666667 L16,10.6666667 L16,11.4285714 L0,11.4285714 L0,10.6666667 Z" id="Rectangle-511" fill="#D02F44" mask="url(#mask-2)"></path>
                            <rect id="Rectangle-511" fill="#46467F" mask="url(#mask-2)" x="0" y="0" width="6.85714286" height="5.33333333"></rect>
                            <g id="Oval-43" mask="url(#mask-2)">
                                <use fill="black" fill-opacity="1" filter="url(#filter-5)" xlink:href="#path-4"></use>
                                <use fill="url(#linearGradient-3)" fill-rule="evenodd" xlink:href="#path-4"></use>
                            </g>
                        </g>
                    </g>
                </g>
            </g>
        </g>
    </g>
</svg>