<?xml version="1.0" encoding="UTF-8"?>
<svg width="24px" height="24px" viewBox="0 0 24 24" version="1.1" xmlns="http://www.w3.org/2000/svg" xmlns:xlink="http://www.w3.org/1999/xlink">
    <!-- Generator: Sketch 46.2 (44496) - http://www.bohemiancoding.com/sketch -->
    <title>Helpjuice_logo</title>
    <desc>Created with Sketch.</desc>
    <defs></defs>
    <g id="Content" stroke="none" stroke-width="1" fill="none" fill-rule="evenodd">
        <g id="Content---Editor" transform="translate(-18.000000, -18.000000)" fill-rule="nonzero" fill="#7A8996">
            <g id="Sidebar-Nav">
                <g id="Helpjuice_logo">
                    <g transform="translate(18.000000, 18.000000)">
                        <path d="M9.453,13.1106 C9.453,14.5104 10.578,15.6462 11.9658,15.6462 C13.353,15.6462 14.4768,14.511 14.4768,13.1106 C14.4768,11.7108 13.1694,9.8334 11.9658,8.2452 C10.761,9.8334 9.453,11.7114 9.453,13.1106 Z" id="Shape"></path>
                        <path d="M20.43,3.5016 C18.0966,1.1676 15.0324,0.0024 11.9682,0.0006 L11.9682,0 C11.967,0 11.967,0 11.9658,0 C11.9652,0 11.9634,0 11.9634,0 L11.9634,0.0006 C8.8986,0.0024 5.8338,1.1676 3.5016,3.5016 C1.167,5.8344 0,8.9004 0,11.9664 C0,15.0324 1.167,18.0978 3.5016,20.4312 C5.8344,22.7634 8.898,23.9304 11.964,23.9322 C11.964,23.9322 11.9658,23.9322 11.9664,23.9322 C11.9676,23.9322 11.9676,23.9322 11.9688,23.9322 C15.033,23.9304 18.0978,22.7634 20.4306,20.4312 C22.7646,18.0978 23.9322,15.0324 23.9322,11.9664 C23.9322,8.9004 22.7646,5.8344 20.43,3.5016 Z M15.5982,2.1078 C16.986,2.6178 18.2898,3.4164 19.4022,4.5282 C20.403,5.5284 21.1548,6.6846 21.6678,7.9146 L19.3332,8.9178 C18.9456,7.9746 18.3714,7.0908 17.6058,6.3258 C16.7454,5.4654 15.7326,4.8522 14.6562,4.4682 L15.5982,2.1078 Z M4.5288,4.53 C5.5296,3.528 6.684,2.7774 7.9164,2.2644 L8.9178,4.5984 C7.9758,4.986 7.092,5.5614 6.327,6.3258 C5.4654,7.185 4.8528,8.1972 4.4694,9.2742 L2.1084,8.3316 C2.6178,6.9456 3.4164,5.6418 4.5288,4.53 Z M8.3334,21.8238 C6.9456,21.3132 5.6412,20.5146 4.5306,19.4022 C3.5292,18.4014 2.778,17.247 2.2638,16.0152 L4.5996,15.0144 C4.9872,15.957 5.5608,16.8414 6.327,17.6058 C7.1868,18.4668 8.1984,19.0794 9.2748,19.4634 L8.3334,21.8238 Z M11.964,18.4854 L11.964,18.4854 C10.2948,18.4854 8.625,17.8494 7.3554,16.578 C6.0834,15.3066 5.4468,13.6356 5.4468,11.9658 C5.4468,10.296 6.0828,8.6256 7.3548,7.3536 C8.6274,6.0822 10.2978,5.4468 11.9694,5.4468 L11.9694,5.4462 C13.6374,5.4474 15.306,6.0828 16.5762,7.3536 C17.8488,8.6256 18.4854,10.2966 18.4854,11.967 L18.4866,11.967 C18.4866,13.6368 17.8506,15.3072 16.578,16.5792 C15.3048,17.8494 13.6344,18.4854 11.964,18.4854 Z M19.4022,19.4028 C18.4032,20.4018 17.2476,21.1548 16.0158,21.6666 L15.0126,19.3356 C15.9552,18.9456 16.8396,18.3702 17.6058,17.6058 C18.4662,16.7466 19.0788,15.735 19.4634,14.6574 L21.8226,15.5988 C21.3138,16.9854 20.514,18.2898 19.4022,19.4028 Z" id="Shape"></path>
                    </g>
                </g>
            </g>
        </g>
    </g>
</svg>