<?xml version="1.0" encoding="UTF-8"?>
<svg width="16px" height="16px" viewBox="0 0 16 16" version="1.1" xmlns="http://www.w3.org/2000/svg" xmlns:xlink="http://www.w3.org/1999/xlink">
    <!-- Generator: Sketch 46.2 (44496) - http://www.bohemiancoding.com/sketch -->
    <title>Group 3</title>
    <desc>Created with Sketch.</desc>
    <defs></defs>
    <g id="Content" stroke="none" stroke-width="1" fill="none" fill-rule="evenodd">
        <g id="Content---Revision-History" transform="translate(-1162.000000, -160.000000)">
            <g id="Sidebar-content" transform="translate(1146.000000, 0.000000)">
                <g id="Revision-1" transform="translate(0.000000, 79.000000)">
                    <g id="Group-3" transform="translate(16.000000, 81.000000)">
                        <circle id="Oval-2" fill="#F6F8F9" cx="8" cy="8" r="8"></circle>
                        <path d="M8.09375,2 C9.7734459,2 11.2089784,2.59569717 12.4003906,3.78710938 C13.5918028,4.97852158 14.1875,6.4140541 14.1875,8.09375 C14.1875,9.7734459 13.5918028,11.2089784 12.4003906,12.4003906 C11.2089784,13.5918028 9.7734459,14.1875 8.09375,14.1875 C6.4140541,14.1875 4.97852158,13.5918028 3.78710938,12.4003906 C2.59569717,11.2089784 2,9.7734459 2,8.09375 C2,6.4140541 2.59569717,4.97852158 3.78710938,3.78710938 C4.97852158,2.59569717 6.4140541,2 8.09375,2 Z M8.09375,12.9570312 C9.44141299,12.9570312 10.5888625,12.4834032 11.5361328,11.5361328 C12.4834032,10.5888625 12.9570312,9.44141299 12.9570312,8.09375 C12.9570312,6.74608701 12.4834032,5.59863755 11.5361328,4.65136719 C10.5888625,3.70409683 9.44141299,3.23046875 8.09375,3.23046875 C6.74608701,3.23046875 5.59863755,3.70409683 4.65136719,4.65136719 C3.70409683,5.59863755 3.23046875,6.74608701 3.23046875,8.09375 C3.23046875,9.44141299 3.70409683,10.5888625 4.65136719,11.5361328 C5.59863755,12.4834032 6.74608701,12.9570312 8.09375,12.9570312 Z" id="" fill="#C6CED4"></path>
                    </g>
                </g>
            </g>
        </g>
    </g>
</svg>