<?xml version="1.0" encoding="UTF-8"?>
<svg width="16px" height="16px" viewBox="0 0 16 16" version="1.1" xmlns="http://www.w3.org/2000/svg" xmlns:xlink="http://www.w3.org/1999/xlink">
    <!-- Generator: Sketch 46.2 (44496) - http://www.bohemiancoding.com/sketch -->
    <title>Group 2</title>
    <desc>Created with Sketch.</desc>
    <defs></defs>
    <g id="Content" stroke="none" stroke-width="1" fill="none" fill-rule="evenodd">
        <g id="Content---Revision-History" transform="translate(-1162.000000, -80.000000)">
            <g id="Sidebar-content" transform="translate(1146.000000, 0.000000)">
                <g id="Revision-1" transform="translate(0.000000, 79.000000)">
                    <g id="Group-2" transform="translate(16.000000, 1.000000)">
                        <circle id="Oval-2" fill="#F6F8F9" cx="8" cy="8" r="8"></circle>
                        <path d="M8,2 C9.65385442,2 11.0673018,2.5865326 12.2403846,3.75961538 C13.4134674,4.93269817 14,6.34614558 14,8 C14,9.65385442 13.4134674,11.0673018 12.2403846,12.2403846 C11.0673018,13.4134674 9.65385442,14 8,14 C6.34614558,14 4.93269817,13.4134674 3.75961538,12.2403846 C2.5865326,11.0673018 2,9.65385442 2,8 C2,6.34614558 2.5865326,4.93269817 3.75961538,3.75961538 C4.93269817,2.5865326 6.34614558,2 8,2 Z M8,13.5096154 C9.51923837,13.5096154 10.8173023,12.9711592 11.8942308,11.8942308 C12.9711592,10.8173023 13.5096154,9.51923837 13.5096154,8 C13.5096154,6.48076163 12.9711592,5.18269769 11.8942308,4.10576923 C10.8173023,3.02884077 9.51923837,2.49038462 8,2.49038462 C6.48076163,2.49038462 5.18269769,3.02884077 4.10576923,4.10576923 C3.02884077,5.18269769 2.49038462,6.48076163 2.49038462,8 C2.49038462,9.51923837 3.02884077,10.8173023 4.10576923,11.8942308 C5.18269769,12.9711592 6.48076163,13.5096154 8,13.5096154 Z M8,3.38461538 C9.26923712,3.38461538 10.3557647,3.83653394 11.2596154,4.74038462 C12.1634661,5.64423529 12.6153846,6.73076288 12.6153846,8 C12.6153846,9.26923712 12.1634661,10.3557647 11.2596154,11.2596154 C10.3557647,12.1634661 9.26923712,12.6153846 8,12.6153846 C6.73076288,12.6153846 5.64423529,12.1634661 4.74038462,11.2596154 C3.83653394,10.3557647 3.38461538,9.26923712 3.38461538,8 C3.38461538,6.73076288 3.83653394,5.64423529 4.74038462,4.74038462 C5.64423529,3.83653394 6.73076288,3.38461538 8,3.38461538 Z" id="ï€" fill="#4F637D"></path>
                    </g>
                </g>
            </g>
        </g>
    </g>
</svg>